<svg version="1.1" id="Pet-Online" xmlns="http://www.w3.org/2000/svg" x="0" y="0" viewBox="0 0 82 52" style="enable-background:new 0 0 82 52" xml:space="preserve">
    <style>
        .st2{fill:#fff}
    </style>
    <path d="M20.5 43.7c-.3-1-1-2.2-1.6-3.5.5 1.1 1 2.2 1.6 3.5zm1.4-.1c-.8-1.4-1.3-2.9-1.8-4.5-.4-.5-.7-.3-1.1-.1-.6.6-1.2.7-.5 1.2.8 1.4 1.4 2.6 1.8 4 .2-.1.5-.3.7-.4.3-.1.4-.4.9-.2zM18.4 39c-.3-1-1-2.2-1.6-3.5.5 1.1 1 2.2 1.6 3.5zm-2.3-4.9c-.2-.8-1-2.2-1.5-3.3.5 1.1.9 2 1.6 3.5l-.1-.2zm1.4-.1c-.7-1.2-1.2-2.7-1.8-4.5-.3-.3-.7-.1-1 .1-.6.6-1.2.7-.5 1.2.7 1.2 1.4 2.6 1.8 4 .2-.1.5-.3.7-.4.2-.3.4-.4.8-.4zM14 29.3c-.2-.8-1-2.2-1.5-3.3.5 1.1.9 2 1.6 3.5l-.1-.2zm1.4-.1c-.7-1.2-1.2-2.7-1.8-4.5-.3-.3-.7-.1-1 .1-.6.6-1.2.5-.5 1.2.7 1.2 1.4 2.6 1.8 4 .2-.1.5-.3.6-.6.3-.1.4-.2.9-.2zm-.4 5.3c-.7-.1-1.2-.3-1.8-.3.7 0 1.1 0 1.8.3-1-.3-1.7-.6-2.6-.8.7.3 1.4.3 2.4.7-1.1-.5-2-.7-2.8-1.1.7.3 1.5.5 2.6 1.1-.9-.6-1.9-1-2.9-1.3.9.2 2 .7 3.3 1.4.3 0 .3 0 0 0zm-.3.1s-.2.1-.2-.1c-1.2 0-2.3-.1-3.3.1.9.2 1.9.1 2.9 0-1 .1-1.8.1-2.6.3.8 0 1.8-.1 2.8-.2-.8 0-1.6.2-2.3.4 1-.1 1.7-.3 2.6-.3-.6.1-1.2.2-1.7.3.6-.1 1.2-.2 1.7-.3l.1-.2zm.5 1.1c-.3.2-.6.6-1.1.8.4-.1.6-.5 1.1-.8-.5.3-1.1.8-1.6 1.1.5-.3.9-.7 1.4-1-.7.4-1.3.8-1.9 1.3.4-.5 1.1-.8 1.7-1.2-.7.4-1.3.8-2 1.1.7-.4 1.4-1 2.2-1.5.3 0 .4.1.2.2zm.1.2-.2.1c-.7.8-1.2 1.6-1.5 2.2.3-.6.8-1.4 1.2-1.9-.3.6-.7 1.1-1.1 1.8.3-.6.8-1.4 1.2-2-.3.6-.5 1.2-.7 1.6.2-.4.6-1 .9-1.7-.2.6-.4.9-.5 1.2.2-.4.2-.8.5-1.2l.2-.1zm.4-.4c.2-.1.2-.1.3-.2.1.2.1.2.3.3.8 1.4 1.4 2.6 1.8 4 .2-.1.5-.3.7-.4.2-.4.4-.5.8-.5-.7-1.2-1.2-2.7-1.8-4.5-.3-.3-.7-.1-1 .1-.4.5-.8.5-.9.7-.1-.2-.3-.3-.4-.5-.1-.2-.3-.3-.7-.7-1.1-.5-2.8-1.1-3.7-1.3.2.5 1.6 1.2 2.6 1.7-1.1-.1-2.5 0-3.3.5.8.4 3.9.3 4.8 0 0 0 .2-.1.2.1.2.1.5.2.6.4-.2.1-.3.2-.6.1 0 0-.2.1-.5.3-.9.3-2 1.1-2.6 1.7.5.2 1.5-.4 2.2-1-.5.7-1.1 1.8-1.4 2.4.7-.2 2.1-2.3 2.1-3.1.3-.1.3-.1.5-.1z" style="fill-rule:evenodd;clip-rule:evenodd;fill:#fff"/>
    <path d="M2 .5h78c.8 0 1.5.7 1.5 1.5v48c0 .8-.7 1.5-1.5 1.5H2c-.8 0-1.5-.7-1.5-1.5V2C.5 1.2 1.2.5 2 .5z" style="fill:none;stroke:#fff"/>
    <path class="st2" d="M8.1 16.1v5.3H6.3V7.8h5c1.5 0 2.7.4 3.5 1.1s1.3 1.8 1.3 3c0 1.3-.4 2.3-1.2 3.1-.8.7-2 1.1-3.5 1.1H8.1zm0-1.5h3.2c1 0 1.7-.2 2.2-.7s.8-1.1.8-2c0-.8-.3-1.5-.8-1.9-.5-.5-1.2-.7-2.1-.8H8.1v5.4zM22.2 21.6c-1.4 0-2.5-.5-3.3-1.4s-1.3-2.1-1.3-3.6v-.3c0-1 .2-1.9.6-2.7s.9-1.4 1.6-1.9c.7-.4 1.4-.7 2.2-.7 1.3 0 2.3.4 3.1 1.3.7.9 1.1 2.1 1.1 3.7v.7h-6.9c0 1 .3 1.8.9 2.4s1.3.9 2.1.9c.6 0 1.1-.1 1.6-.4.4-.2.8-.6 1.1-1l1.1.8c-.9 1.6-2.2 2.2-3.9 2.2zm-.2-9c-.7 0-1.3.3-1.8.8s-.8 1.2-.9 2.1h5.1v-.1c0-.9-.3-1.6-.7-2-.4-.6-1-.8-1.7-.8zM30.5 8.9v2.5h1.9v1.3h-1.9V19c0 .4.1.7.3.9.2.2.5.3.9.3.2 0 .5 0 .8-.1v1.4c-.5.1-.9.2-1.3.2-.8 0-1.4-.2-1.7-.7-.4-.5-.6-1.1-.6-2v-6.3h-1.8v-1.3h1.8V8.9h1.6zM38.7 15.4c-1.5-.4-2.7-1-3.4-1.6s-1.1-1.4-1.1-2.4c0-1.1.4-2 1.3-2.7.9-.7 2-1.1 3.3-1.1.9 0 1.8.2 2.5.5.7.4 1.3.9 1.7 1.5s.6 1.3.6 2.1h-1.8c0-.8-.3-1.5-.8-1.9-.5-.5-1.3-.7-2.2-.7s-1.6.2-2.1.6c-.5.4-.7.9-.7 1.6 0 .6.2 1 .7 1.4s1.3.7 2.4 1.1c1.1.3 2 .7 2.7 1.1s1.1.8 1.4 1.3c.3.5.5 1.1.5 1.8 0 1.1-.4 2-1.3 2.7s-2 1-3.5 1c-.9 0-1.8-.2-2.6-.5-.8-.4-1.4-.8-1.9-1.5-.4-.6-.7-1.3-.7-2.1h1.8c0 .8.3 1.5.9 1.9s1.4.7 2.4.7c.9 0 1.7-.2 2.2-.6s.8-.9.8-1.6-.2-1.2-.7-1.5c-.3-.4-1.2-.8-2.4-1.1zM48.1 8.9v2.5H50v1.3h-1.9V19c0 .4.1.7.3.9.2.2.5.3.9.3.2 0 .5 0 .8-.1v1.4c-.5.1-.9.2-1.3.2-.8 0-1.4-.2-1.7-.7-.4-.5-.6-1.1-.6-2v-6.3h-1.8v-1.3h1.8V8.9h1.6zM51.3 16.3c0-1 .2-1.9.6-2.7.4-.8.9-1.4 1.6-1.8.7-.4 1.5-.6 2.4-.6 1.4 0 2.5.5 3.3 1.4.9 1 1.3 2.2 1.3 3.8v.1c0 1-.2 1.9-.6 2.7-.4.8-.9 1.4-1.6 1.8-.7.4-1.5.7-2.4.7-1.4 0-2.5-.5-3.3-1.4-.9-1-1.3-2.2-1.3-3.8v-.2zm1.8.2c0 1.1.3 2 .8 2.7s1.2 1 2.1 1c.9 0 1.6-.3 2.1-1s.8-1.7.8-2.9c0-1.1-.3-2-.8-2.7s-1.2-1-2.1-1c-.9 0-1.5.3-2.1 1s-.8 1.6-.8 2.9zM67.6 12.9c-.3 0-.5-.1-.9-.1-1.1 0-1.9.5-2.3 1.4v7.2h-1.7V11.3h1.7v1.2c.6-.9 1.4-1.4 2.4-1.4.3 0 .6 0 .8.1v1.7zM72.7 18.9l2.4-7.6H77L72.8 23c-.6 1.7-1.6 2.5-3 2.5h-.3l-.6-.1V24h.5c.6 0 1-.1 1.4-.4.3-.2.6-.7.8-1.3l.4-1-3.6-10h1.9l2.4 7.6zM16 39.3c0-1 .2-1.9.6-2.7s.9-1.4 1.6-1.8c.7-.4 1.5-.6 2.4-.6 1.4 0 2.5.5 3.3 1.4.9 1 1.3 2.2 1.3 3.8v.1c0 1-.2 1.9-.6 2.7s-.9 1.4-1.6 1.8c-.7.4-1.5.7-2.4.7-1.4 0-2.5-.5-3.3-1.4-.9-1-1.3-2.2-1.3-3.8v-.2zm1.8.2c0 1.1.3 2 .8 2.7s1.2 1 2.1 1 1.6-.3 2.1-1 .8-1.7.8-2.9c0-1.1-.3-2-.8-2.7s-1.2-1-2.1-1-1.5.3-2.1 1-.8 1.6-.8 2.9zM29 34.3l.1 1.3c.8-1 1.8-1.5 3-1.5 2.1 0 3.2 1.2 3.2 3.6v6.7h-1.7v-6.7c0-.7-.2-1.3-.5-1.6s-.8-.5-1.5-.5c-.6 0-1.1.1-1.5.4-.4.3-.8.7-1 1.2v7.2h-1.7V34.3H29zM39.9 44.4h-1.7V30.1h1.7v14.3zM42.6 31.6c0-.3.1-.5.3-.7s.4-.3.8-.3c.3 0 .6.1.8.3.2.2.3.4.3.7 0 .3-.1.5-.3.7s-.4.3-.8.3c-.3 0-.6-.1-.8-.3s-.3-.4-.3-.7zm1.9 12.8h-1.7V34.3h1.7v10.1zM48.9 34.3l.1 1.3c.8-1 1.8-1.5 3-1.5 2.1 0 3.2 1.2 3.2 3.6v6.7h-1.7v-6.7c0-.7-.2-1.3-.5-1.6s-.8-.5-1.5-.5c-.6 0-1.1.1-1.5.4-.4.3-.8.7-1 1.2v7.2h-1.7V34.3h1.6zM62 44.6c-1.4 0-2.5-.5-3.3-1.4s-1.3-2.1-1.3-3.6v-.3c0-1 .2-1.9.6-2.7s.9-1.4 1.6-1.9c.7-.4 1.4-.7 2.2-.7 1.3 0 2.3.4 3.1 1.3.7.9 1.1 2.1 1.1 3.7v.7h-6.9c0 1 .3 1.8.9 2.4.6.6 1.3.9 2.1.9.6 0 1.1-.1 1.6-.4.4-.2.8-.6 1.1-1l1.1.8c-.9 1.6-2.2 2.2-3.9 2.2zm-.2-9.1c-.7 0-1.3.3-1.8.8s-.8 1.2-.9 2.1h5.1v-.1c0-.9-.3-1.6-.7-2-.4-.5-1-.8-1.7-.8z"/>
</svg>
